<?xml version="1.0" encoding="UTF-8"?>
<svg width="144px" height="253px" viewBox="0 0 144 253" version="1.1" xmlns="http://www.w3.org/2000/svg" xmlns:xlink="http://www.w3.org/1999/xlink">
    <!-- Generator: Sketch 57.1 (83088) - https://sketch.com -->
    <title>Group 5</title>
    <desc>Created with Sketch.</desc>
    <g id="Welcome" stroke="none" stroke-width="1" fill="none" fill-rule="evenodd">
        <g id="block" transform="translate(-121.000000, -58.000000)">
            <g id="hero" transform="translate(-1238.000000, 15.000000)">
                <g id="Group-5" transform="translate(1355.000000, 44.000000)">
                    <g id="rectangle">
                        <polygon id="Rectangle" stroke="#202020" stroke-width="2" transform="translate(65.000000, 133.307175) rotate(10.000000) translate(-65.000000, -133.307175) " points="19.0804707 22.0853426 106.433391 24.0868506 110.919529 244.529007 23.5666094 242.527499"></polygon>
                        <polygon id="Rectangle" stroke="#202020" stroke-width="2" transform="translate(87.000000, 118.558296) rotate(10.000000) translate(-87.000000, -118.558296) " points="41.0804707 7.33646367 128.433391 9.33797168 132.919529 229.780128 45.5666094 227.77862"></polygon>
                        <path d="M39,15.4285714 L60,0.571428571" id="Line-4" stroke="#111111" stroke-linecap="square"></path>
                        <path d="M125,33.4285714 L147,18.5714286" id="Line-4" stroke="#111111" stroke-linecap="square"></path>
                        <path d="M92,251.428571 L114,236.571429" id="Line-4" stroke="#111111" stroke-linecap="square"></path>
                        <path d="M6,233.428571 L28,218.571429" id="Line-4" stroke="#111111" stroke-linecap="square"></path>
                    </g>
                    <g id="rectangle" transform="translate(76.000000, 126.000000) scale(-1, 1) translate(-76.000000, -126.000000) ">
                        <polygon id="Rectangle" stroke="#202020" stroke-width="2" transform="translate(65.000000, 133.307175) rotate(10.000000) translate(-65.000000, -133.307175) " points="19.0804707 22.0853426 106.433391 24.0868506 110.919529 244.529007 23.5666094 242.527499"></polygon>
                        <polygon id="Rectangle" stroke="#202020" stroke-width="2" transform="translate(87.000000, 118.558296) rotate(10.000000) translate(-87.000000, -118.558296) " points="41.0804707 7.33646367 128.433391 9.33797168 132.919529 229.780128 45.5666094 227.77862"></polygon>
                        <path d="M39,15.4285714 L60,0.571428571" id="Line-4" stroke="#111111" stroke-linecap="square"></path>
                        <path d="M125,33.4285714 L147,18.5714286" id="Line-4" stroke="#111111" stroke-linecap="square"></path>
                        <path d="M92,251.428571 L114,236.571429" id="Line-4" stroke="#111111" stroke-linecap="square"></path>
                        <path d="M6,233.428571 L28,218.571429" id="Line-4" stroke="#111111" stroke-linecap="square"></path>
                    </g>
                </g>
            </g>
        </g>
    </g>
</svg>