<?xml version="1.0" encoding="UTF-8"?>
<svg width="253px" height="178px" viewBox="0 0 253 178" version="1.1" xmlns="http://www.w3.org/2000/svg" xmlns:xlink="http://www.w3.org/1999/xlink">
    <!-- Generator: Sketch 57.1 (83088) - https://sketch.com -->
    <title>Artboard</title>
    <desc>Created with Sketch.</desc>
    <defs>
        <circle id="path-1" cx="79.5" cy="88.5" r="13.5"></circle>
        <path d="M213.356909,101 C217.940653,101 227.704769,97.0907124 242.649258,89.2721371 L242.649268,89.2721554 C243.627996,88.7601099 244.006316,87.5515992 243.494271,86.5728713 C243.3053,86.2116707 243.010468,85.9168389 242.649268,85.727868 C227.704773,77.9092893 217.940654,74 213.356909,74 C205.980092,74 200,80.0441559 200,87.5 C200,94.9558441 205.980092,101 213.356909,101 Z" id="path-2"></path>
    </defs>
    <g id="Artboard" stroke="none" stroke-width="1" fill="none" fill-rule="evenodd">
        <g id="Oval" stroke="#000000">
            <use stroke-width="1" xlink:href="#path-1"></use>
            <use stroke-width="5" xlink:href="#path-1"></use>
        </g>
        <g id="Oval" stroke="#000000">
            <use stroke-width="1" xlink:href="#path-2"></use>
            <use stroke-width="5" xlink:href="#path-2"></use>
        </g>
        <path d="M193.5,64.5 L194.5,113.5" id="Line-3" stroke="#070707" stroke-width="6" stroke-linecap="square"></path>
        <path d="M165.5,55.5 L165.5,124.5" id="Line-3" stroke="#070707" stroke-width="6" stroke-linecap="square"></path>
        <path d="M51.4972243,118 C47.7735141,104.590808 45.9415792,94.2560973 46.0014197,86.9958678 C46.0612601,79.7356382 48.0607869,69.7370156 52,57" id="Line-2" stroke="#080808" stroke-width="6" stroke-linecap="square" transform="translate(49.000000, 87.500000) scale(1, -1) translate(-49.000000, -87.500000) "></path>
        <path d="M190.191822,11.8368671 L166.778204,27.1520325 C166.495802,27.3367557 166.32561,27.6514478 166.32561,27.9888996 L166.32561,51 L166.32561,51 L126,44.5474664 L153.313852,10.3756341 C153.503616,10.1382235 153.791053,10 154.094984,10 L189.644416,10 C190.196701,10 190.644416,10.4477153 190.644416,11 C190.644416,11.3374518 190.474225,11.6521439 190.191822,11.8368671 Z" id="Line" stroke="#000000" stroke-width="5" stroke-linecap="square"></path>
        <path d="M191.096571,125.844124 L166.993212,141.153463 C166.704347,141.336937 166.52936,141.655381 166.52936,141.997587 L166.52936,165 L166.52936,165 L125,158.547466 L153.13839,124.364459 C153.328347,124.133696 153.611567,124 153.910457,124 L190.560423,124 C191.112708,124 191.560423,124.447715 191.560423,125 C191.560423,125.342206 191.385436,125.66065 191.096571,125.844124 Z" id="Line" stroke="#000000" stroke-width="5" stroke-linecap="square" transform="translate(159.500000, 144.500000) scale(1, -1) translate(-159.500000, -144.500000) "></path>
        <path d="M10,127 C27.0554395,101 58.2221062,88 103.5,88 C146.248146,88 176.417848,91.9784222 194.009106,99.9352665 C194.512307,100.162875 194.735721,100.755313 194.508114,101.258515 C194.366354,101.571922 194.073467,101.790473 193.732673,101.837146" id="Line" stroke="#000000" stroke-width="6" stroke-linecap="square" transform="translate(103.500000, 107.500000) scale(1, -1) translate(-103.500000, -107.500000) "></path>
        <path d="M9,88 C34.1056653,59.3333333 65.6352538,45 103.588766,45 C141.542278,45 171.012689,50.7939244 192,62.3817731" id="Line" stroke="#000000" stroke-width="6" stroke-linecap="square"></path>
    </g>
</svg>